IKResults
version=1
nRows=5
nColumns=40
inDegrees=yes

Units are S.I. units (second, meters, Newtons, ...)
Angles are in degrees.

endheader
time	pelvis_tilt	pelvis_list	pelvis_rotation	pelvis_tx	pelvis_ty	pelvis_tz	hip_flexion_r	hip_adduction_r	hip_rotation_r	knee_angle_r	knee_angle_r_beta	ankle_angle_r	subtalar_angle_r	mtp_angle_r	hip_flexion_l	hip_adduction_l	hip_rotation_l	knee_angle_l	knee_angle_l_beta	ankle_angle_l	subtalar_angle_l	mtp_angle_l	lumbar_extension	lumbar_bending	lumbar_rotation	arm_flex_r	arm_add_r	arm_rot_r	elbow_flex_r	pro_sup_r	wrist_flex_r	wrist_dev_r	arm_flex_l	arm_add_l	arm_rot_l	elbow_flex_l	pro_sup_l	wrist_flex_l	wrist_dev_l
      0.00000000	     13.29406152	     -3.37219005	     -4.30525771	     -0.61587228	      0.92840160	      1.46460664	    -24.74983442	      1.21077821	     -4.76825244	    -13.36151505	     -0.23320243	     15.47536382	     -2.35513011	     -2.88715078	     15.20607120	      4.39352169	     15.56359607	    -30.63267943	     -0.53464111	      7.87529700	      7.91377061	     -2.38978965	    -25.88438118	      0.50946585	      4.80187667	      4.13103789	    -15.97752250	      0.30167775	     46.28280781	     89.95437384	      0.00000000	      0.00000000	     -7.27871769	     11.35387924	     15.19453121	     13.33753416	     89.95437384	      0.00000000	      0.00000000
      0.01000000	     12.93986937	     -3.43573309	     -4.37480307	     -0.60234981	      0.92482283	      1.46541561	    -25.19574094	      1.25287195	     -4.54384170	    -13.64495895	     -0.23814946	     16.02297696	     -2.24238985	     -3.09733231	     15.86878986	      4.67555510	     16.26555336	    -27.67612692	     -0.48303954	      7.67369529	      6.34352650	     -2.76581864	    -25.45683675	      0.55730832	      5.07886082	      4.25820474	    -16.34981686	      0.41910069	     47.97887193	     89.95437384	      0.00000000	      0.00000000	     -7.98379586	     11.47438795	     15.46413770	     12.52989444	     89.95437384	      0.00000000	      0.00000000
      0.02000000	     13.22077538	     -3.09443567	     -4.89438375	     -0.58755869	      0.92216676	      1.46653458	    -26.39492340	      0.56130288	     -4.43274025	    -13.85728709	     -0.24185529	     16.17191323	     -2.06914634	     -3.57512516	     15.41718969	      4.78029289	     18.69926607	    -24.43905590	     -0.42654199	      6.97117502	      2.98605675	     -4.02079147	    -25.55899914	     -0.05595128	      5.52108801	      4.29299888	    -16.62044462	      0.42557620	     49.62396633	     89.95437384	      0.00000000	      0.00000000	     -8.82769141	     11.48879320	     16.65647574	     11.99243167	     89.95437384	      0.00000000	      0.00000000
      0.03000000	     13.14534651	     -3.22372315	     -5.30787174	     -0.57299141	      0.91887190	      1.46757400	    -27.11257873	      0.39428077	     -4.16925689	    -14.26776744	     -0.24901952	     16.21189594	     -1.85319269	     -6.74617489	     15.69528609	      5.58013140	     21.36691417	    -22.18156162	     -0.38714128	      6.18721022	     -0.57009970	    -10.80488530	    -25.33462554	     -0.09659180	      6.04792867	      4.34775571	    -17.02663441	      0.57861097	     51.13854940	     89.95437384	      0.00000000	      0.00000000	     -9.67459724	     11.47055626	     17.40931100	     11.52339779	     89.95437384	      0.00000000	      0.00000000
      0.04000000	     13.06662428	     -3.07663273	     -5.74649291	     -0.55859545	      0.91577067	      1.46818509	    -27.65147232	     -0.10826815	     -3.99878366	    -14.97716519	     -0.26140085	     16.41306786	     -1.59600308	     -6.98598620	     15.88794531	      5.74079289	     23.00027194	    -20.02133873	     -0.34943828	      5.71874953	     -2.99328675	    -11.12826373	    -25.15237907	     -0.42958492	      6.53942628	      4.35526429	    -17.35644256	      0.49622263	     52.58293017	     89.95437384	      0.00000000	      0.00000000	    -10.37805465	     11.46764838	     18.14504090	     11.08947678	     89.95437384	      0.00000000	      0.00000000
